<svg width="31" height="31" viewBox="0 0 31 31" fill="none" xmlns="http://www.w3.org/2000/svg">
<path d="M15.5 7.62091C16.9983 7.62091 18.2125 8.83508 18.2125 10.3334C18.2125 11.8317 16.9983 13.0459 15.5 13.0459C14.0017 13.0459 12.7875 11.8317 12.7875 10.3334C12.7875 8.83508 14.0017 7.62091 15.5 7.62091ZM15.5 19.2459C19.3363 19.2459 23.3792 21.1317 23.3792 21.9584V23.3792H7.62084V21.9584C7.62084 21.1317 11.6638 19.2459 15.5 19.2459ZM15.5 5.16675C12.6454 5.16675 10.3333 7.47883 10.3333 10.3334C10.3333 13.188 12.6454 15.5001 15.5 15.5001C18.3546 15.5001 20.6667 13.188 20.6667 10.3334C20.6667 7.47883 18.3546 5.16675 15.5 5.16675ZM15.5 16.7917C12.0513 16.7917 5.16667 18.5226 5.16667 21.9584V25.8334H25.8333V21.9584C25.8333 18.5226 18.9488 16.7917 15.5 16.7917Z" fill="#AA00FF"/>
</svg>
